<?xml version="1.0" encoding="UTF-8"?>
<svg version="1.1" xmlns="http://www.w3.org/2000/svg" width="512" height="512">
<path d="M0 0 C4.47602984 4.18846368 7.27489859 9.71039607 8.1640625 15.75 C8.42226965 24.20041593 6.93792214 29.75348813 1.1628418 36.00512695 C0.20709025 37.01637055 -0.75115474 38.0252624 -1.71166992 39.03198242 C-11.82135644 49.69481251 -19.51228634 61.9370636 -26.25 74.9375 C-26.72928955 75.84918945 -26.72928955 75.84918945 -27.21826172 76.77929688 C-46.4184027 113.75437234 -48.17838131 158.44692484 -35.9765625 197.83203125 C-28.77097753 219.82693392 -17.02240679 239.75081072 -1.29296875 256.68359375 C0.1255261 258.24854887 1.48598036 259.86730725 2.796875 261.5234375 C11.95089984 272.83781221 26.23044705 281.84500097 38.75 288.9375 C39.32492187 289.26459961 39.89984375 289.59169922 40.4921875 289.92871094 C75.94994674 309.76724981 119.97302334 315.34496055 159.22265625 304.76953125 C165.66950295 302.94633121 171.9969758 300.85960204 178.3125 298.625 C186.35798338 295.92855734 192.99828992 296.37085046 200.75 299.9375 C206.52025235 303.74804401 209.14450021 308.30744577 211.35546875 314.68359375 C214.78554111 334.27915564 197.92013589 358.49644311 187.32470703 373.92773438 C186.14556128 375.60696637 184.9513456 377.2740984 183.75 378.9375 C183.02425781 379.95585937 182.29851562 380.97421875 181.55078125 382.0234375 C168.32122425 400.12204151 152.72189523 417.46449817 134.75 430.9375 C134.13141113 431.41074707 133.51282227 431.88399414 132.87548828 432.37158203 C80.13843497 472.57780124 14.34655463 489.14016072 -51.23095703 480.546875 C-111.83490576 471.81845165 -171.20696833 439.34990956 -208.25 389.9375 C-208.72324707 389.31891113 -209.19649414 388.70032227 -209.68408203 388.06298828 C-249.73580228 335.52858571 -266.83453456 269.82668594 -258.21484375 204.38671875 C-252.06587974 161.76278558 -235.14122702 121.59982981 -208.25 87.9375 C-207.4353125 86.89980469 -206.620625 85.86210938 -205.78125 84.79296875 C-201.76574461 79.76671115 -197.56940979 75.11167785 -192.94921875 70.63671875 C-191.11333496 68.87014113 -191.11333496 68.87014113 -189.25 66.375 C-186.96416631 63.58914019 -184.47196171 61.38078937 -181.7265625 59.0546875 C-179.94300666 57.52994418 -178.19124979 55.96772039 -176.4609375 54.3828125 C-142.76570579 23.83805578 -46.462257 -29.4856631 0 0 Z " fill="#4EA6FF" transform="translate(280.25,17.0625)"/>
</svg>
