<?xml version="1.0" encoding="UTF-8"?>
<svg version="1.1" xmlns="http://www.w3.org/2000/svg" width="256" height="256">
<path d="M0 0 C3.60395996 3.06877475 6.62958804 6.32718074 9.47265625 10.10546875 C9.92125 10.68425781 10.36984375 11.26304688 10.83203125 11.859375 C19.66132307 24.47654202 20.99436185 39.19946283 19.47265625 54.10546875 C18.63200108 58.72672397 17.35245148 62.80794948 15.47265625 67.10546875 C15.08335937 68.03230469 14.6940625 68.95914063 14.29296875 69.9140625 C7.59574543 83.88312297 -4.28666791 92.78618401 -18.52734375 98.10546875 C-32.5560627 102.77692636 -49.34259829 101.54034452 -62.52734375 95.10546875 C-77.14877276 87.02829206 -86.68316938 75.36526808 -91.68359375 59.41796875 C-92.64125351 55.65826746 -93.22264315 51.96500971 -93.52734375 48.10546875 C-93.60855469 47.10773438 -93.60855469 47.10773438 -93.69140625 46.08984375 C-94.30629689 30.99707338 -88.52770153 16.514967 -78.77734375 5.16796875 C-57.30018218 -16.9600159 -24.21615895 -18.57152909 0 0 Z " fill="#F0C051" transform="translate(164.52734375,83.89453125)"/>
<path d="M0 0 C5.98587941 3.31361182 10.48292311 8.22237919 15.25 13.0625 C16.0646875 13.87783203 16.879375 14.69316406 17.71875 15.53320312 C25.82690178 23.70176332 25.82690178 23.70176332 26.5 28.75 C26.41721519 33.22865826 24.49769417 35.48191367 21.5078125 38.65234375 C18.74745769 41.11950025 16.02124662 41.65236055 12.328125 41.5859375 C7.13667581 40.27936472 3.63413085 35.7017184 0 32 C-1.06394319 30.96620905 -2.13044028 29.93504125 -3.19921875 28.90625 C-4.27983165 27.85538467 -5.35927621 26.80331649 -6.4375 25.75 C-6.94571289 25.25532227 -7.45392578 24.76064453 -7.97753906 24.25097656 C-11.62754735 20.60586433 -14.49224122 17.28491451 -15.625 12.1875 C-14.67055184 7.31981439 -11.53719979 4.35313736 -8 1 C-5.13391871 -0.43304064 -3.18699217 -0.30644155 0 0 Z " fill="#F0CE4F" transform="translate(192,177)"/>
<path d="M0 0 C2.88892694 2.1070614 5.4244865 4.5241838 8 7 C8.52142578 7.49564453 9.04285156 7.99128906 9.58007812 8.50195312 C11.33552002 10.17751143 13.07594917 11.86738165 14.8125 13.5625 C15.37590088 14.10430908 15.93930176 14.64611816 16.51977539 15.2043457 C19.86455478 18.52299008 22.22157717 21.55082287 24 26 C24 31.42191011 21.71151385 34.20217188 18 38 C15.47695484 39.93433462 14.08097626 39.99514142 10.875 40.1875 C5.00961605 39.09163209 1.06054715 34.02040049 -3 30 C-4.06612697 28.99181471 -5.13389018 27.9853574 -6.203125 26.98046875 C-7.28253232 25.9466497 -8.36067657 24.91151015 -9.4375 23.875 C-9.94563232 23.39699951 -10.45376465 22.91899902 -10.97729492 22.42651367 C-14.60533733 18.85321121 -16.39982783 15.7503369 -18 11 C-17.18939569 5.93372307 -14.88172683 3.24981781 -11 0 C-6.73703643 -2.51405544 -4.40020146 -2.1569615 0 0 Z " fill="#F1B74D" transform="translate(55,39)"/>
<path d="M0 0 C4.53497259 2.79905817 7.51391485 5.51616111 9.1875 10.625 C8.85524506 16.60558884 5.28937924 19.96090545 1.18359375 24.046875 C0.25482422 24.97371094 -0.67394531 25.90054688 -1.63085938 26.85546875 C-2.11192139 27.33032715 -2.5929834 27.80518555 -3.08862305 28.29443359 C-4.56688409 29.75432963 -6.03687747 31.22217939 -7.50585938 32.69140625 C-15.64926761 40.78388282 -15.64926761 40.78388282 -20.125 41.5 C-25.60048327 40.79348603 -28.51434647 38.17772033 -32 34 C-33.45622885 30.24446243 -33.35075438 28.82767584 -31.78710938 25.13793945 C-29.90714718 21.83696211 -27.90497621 19.53221838 -25.21875 16.85546875 C-24.29449219 15.93185547 -23.37023437 15.00824219 -22.41796875 14.05664062 C-21.9389209 13.58589111 -21.45987305 13.1151416 -20.96630859 12.63012695 C-19.4951837 11.18276149 -18.03800738 9.72235315 -16.58203125 8.25976562 C-7.16807849 -1.08197411 -7.16807849 -1.08197411 0 0 Z " fill="#F0C051" transform="translate(70,177)"/>
<path d="M0 0 C3.70014129 3.01853631 5.70971276 5.77186167 6.8125 10.4375 C5.97920285 14.09118751 5.39772181 15.00249236 2.98046875 17.6640625 C2.03046997 18.71243286 2.03046997 18.71243286 1.0612793 19.78198242 C0.38105713 20.51392822 -0.29916504 21.24587402 -1 22 C-1.67828857 22.73387939 -2.35657715 23.46775879 -3.05541992 24.22387695 C-5.17791913 26.48795833 -7.33387146 28.71518387 -9.5 30.9375 C-10.22058594 31.70384766 -10.94117188 32.47019531 -11.68359375 33.25976562 C-17.67483852 39.37560228 -17.67483852 39.37560228 -21.8671875 40.0703125 C-27.04203654 39.95416876 -29.1490962 37.77691216 -32.875 34.375 C-35.31030841 30.50715723 -35.58418927 28.99237327 -34.96728516 24.60351562 C-33.03550649 19.40399827 -28.75363127 15.77606702 -24.79980469 12.03149414 C-23.24823121 10.56082344 -21.72831504 9.06249315 -20.2109375 7.55664062 C-8.60489572 -3.77407707 -8.60489572 -3.77407707 0 0 Z " fill="#F0BF51" transform="translate(212,39)"/>
<path d="M0 0 C3.63467079 1.62400184 4.77408696 2.66113044 7 6 C7.21984088 8.71032405 7.32798981 11.31547463 7.3359375 14.02734375 C7.3425943 14.81266983 7.3492511 15.59799591 7.35610962 16.40711975 C7.36622915 18.06720641 7.37092685 19.7273337 7.37060547 21.38745117 C7.37497846 23.92499904 7.41130172 26.4608068 7.44921875 28.99804688 C7.45508717 30.61197322 7.4590564 32.22590783 7.4609375 33.83984375 C7.47530853 34.5972435 7.48967957 35.35464325 7.50448608 36.13499451 C7.47382567 39.67657317 7.30218843 41.61151077 5.09619141 44.44750977 C1.81895982 46.87470702 -0.26044094 47.23243771 -4.3125 47.375 C-5.25738281 47.42398438 -6.20226562 47.47296875 -7.17578125 47.5234375 C-11.1999964 46.77759403 -12.4776977 45.18877698 -15 42 C-15.51125777 39.00363402 -15.72642814 36.58517433 -15.69921875 33.59375 C-15.70637405 32.79142944 -15.71352936 31.98910889 -15.72090149 31.16247559 C-15.72866256 29.47144681 -15.72369995 27.78031747 -15.70678711 26.08935547 C-15.68755111 23.50686175 -15.72696558 20.92974644 -15.77148438 18.34765625 C-15.77177474 16.70051764 -15.76863449 15.05337411 -15.76171875 13.40625 C-15.77700119 12.63841187 -15.79228363 11.87057373 -15.80802917 11.07946777 C-15.74420516 8.13245777 -15.59356879 5.7338694 -13.69682312 3.38879395 C-9.15506977 -0.53057951 -5.71581659 -0.9807582 0 0 Z " fill="#F0C852" transform="translate(132,203)"/>
<path d="M0 0 C0.78645905 0.00091141 1.57291809 0.00182281 2.38320923 0.00276184 C3.1921463 -0.00152328 4.00108337 -0.00580841 4.83453369 -0.01022339 C6.54768945 -0.01597154 8.26086962 -0.01646338 9.97402954 -0.01213074 C12.59261938 -0.00897756 15.21007224 -0.03239909 17.82852173 -0.05778503 C19.4925828 -0.0600587 21.15664692 -0.06076121 22.82070923 -0.05973816 C23.60311981 -0.06894791 24.3855304 -0.07815765 25.19165039 -0.08764648 C28.43729162 -0.06010407 30.816788 0.07698679 33.69815063 1.63874817 C36.38210373 4.54657724 36.39386239 7.46260151 36.42227173 11.24104309 C36.43645142 12.09569153 36.4506311 12.95033997 36.46524048 13.83088684 C36.21552216 16.51006817 35.69623233 18.05551565 34.23477173 20.30354309 C30.50660952 22.78898456 27.56242969 22.62676789 23.24258423 22.63948059 C22.06815262 22.64946579 22.06815262 22.64946579 20.86999512 22.65965271 C19.21410469 22.66977336 17.55817352 22.67446991 15.9022522 22.67414856 C13.37568464 22.67851559 10.85087324 22.71482116 8.32461548 22.75276184 C6.71394435 22.7586315 5.10326495 22.7625999 3.49258423 22.76448059 C2.74034576 22.77885162 1.9881073 22.79322266 1.21307373 22.80802917 C-2.45199696 22.77629629 -4.58186011 22.41785642 -7.71884155 20.4622345 C-10.95081815 17.05288863 -11.04244108 13.89583808 -10.99179077 9.30354309 C-10.23148899 2.59191354 -6.2031768 0.08125364 0 0 Z " fill="#F0C852" transform="translate(213.76522827148438,116.69645690917969)"/>
<path d="M0 0 C0.80469223 -0.00241196 1.60938446 -0.00482391 2.4384613 -0.00730896 C4.13374782 -0.00633247 5.829067 0.00701417 7.52416992 0.03198242 C10.11682434 0.06634966 12.70607882 0.05261987 15.29882812 0.03320312 C16.94923323 0.04010054 18.59962956 0.04977199 20.25 0.0625 C21.40949913 0.0550602 21.40949913 0.0550602 22.59242249 0.04747009 C26.11713773 0.12453273 28.17604194 0.34486886 31.04248047 2.47314453 C33.11194638 5.41571844 33.12522416 7.49360384 33.12109375 11.06640625 C33.14300781 12.17886719 33.16492187 13.29132813 33.1875 14.4375 C32.35042182 18.68528182 30.94534109 19.96487255 27.55859375 22.62890625 C24.61667766 23.11636558 22.26784982 23.30970388 19.3359375 23.2578125 C18.16219322 23.26143044 18.16219322 23.26143044 16.96473694 23.26512146 C15.31652743 23.26414514 13.66828427 23.25080253 12.02026367 23.22583008 C9.50000612 23.19145961 6.98324588 23.20519367 4.46289062 23.22460938 C2.85805803 23.21771197 1.25323445 23.20804053 -0.3515625 23.1953125 C-1.10268814 23.20027237 -1.85381378 23.20523224 -2.62770081 23.21034241 C-6.14366082 23.13128603 -8.0763561 22.91435818 -10.88452148 20.71850586 C-13.32152128 17.44764475 -13.67385962 15.36802018 -13.81640625 11.31640625 C-13.86539062 10.37152344 -13.914375 9.42664063 -13.96484375 8.453125 C-12.56442061 0.89711059 -6.69120756 -0.11506652 0 0 Z " fill="#F1B751" transform="translate(19.44140625,116.37109375)"/>
<path d="M0 0 C3.46534818 0.57755803 5.29129577 1.81529145 7.6015625 4.43359375 C9.11025307 7.45097489 8.78508141 10.57963548 8.8046875 13.890625 C8.81038757 14.63060226 8.81608765 15.37057953 8.82196045 16.13298035 C8.83141268 17.70069956 8.83794532 19.26843866 8.84179688 20.83618164 C8.85148282 23.22643082 8.88249445 25.6158128 8.9140625 28.00585938 C8.92059473 29.52994282 8.92584434 31.0540324 8.9296875 32.578125 C8.9420343 33.28975296 8.9543811 34.00138092 8.96710205 34.73457336 C8.9474693 39.14294877 8.31536877 41.92984357 5.6015625 45.43359375 C2.78949015 46.83962993 0.36146784 46.6791688 -2.7734375 46.74609375 C-4.48660156 46.80216797 -4.48660156 46.80216797 -6.234375 46.859375 C-9.3984375 46.43359375 -9.3984375 46.43359375 -11.56079102 44.92626953 C-14.11878579 41.45647723 -13.99147541 38.275564 -13.96484375 34.125 C-13.97104233 33.3212645 -13.97724091 32.51752899 -13.98362732 31.68943787 C-13.99071949 29.99243377 -13.9875619 28.29536001 -13.97485352 26.59838867 C-13.96099926 24.00764257 -13.99504687 21.42051851 -14.03320312 18.83007812 C-14.03415451 17.17838454 -14.03229446 15.52668644 -14.02734375 13.875 C-14.04060196 13.10402481 -14.05386017 12.33304962 -14.06752014 11.53871155 C-13.99796931 7.50166165 -13.56728253 5.64654204 -11.02905273 2.4453125 C-7.23276955 -0.45783121 -4.61972561 -0.20545949 0 0 Z " fill="#F1B750" transform="translate(130.3984375,5.56640625)"/>
</svg>
